PathFileType	4	(X/Y/Z)	RBDS014static.trc
DataRate	CameraRate	NumFrames	NumMarkers	Units	OrigDataRate	OrigDataStartFrame	OrigNumFrames
150.000000	150.000000	4	48	mm	150.000000	56	150
Frame#	Time	L.Ankle			L.Ankle.Medial			L.ASIS			L.GTR			L.Heel.Bottom			L.Heel.Lateral			L.Heel.Top			L.HF			L.Iliac.Crest			L.Knee			L.Knee.Medial			L.MT1			L.MT2			L.MT5			L.PSIS			L.Shank.Bottom.Lateral			L.Shank.Bottom.Medial			L.Shank.Top.Lateral			L.Shank.Top.Medial			L.Thigh.Bottom.Lateral			L.Thigh.Bottom.Medial			L.Thigh.Top.Lateral			L.Thigh.Top.Medial			L.TT			R.Ankle			R.Ankle.Medial			R.ASIS			R.GTR			R.Heel.Bottom			R.Heel.Lateral			R.Heel.Top			R.HF			R.Iliac.Crest			R.Knee			R.Knee.Medial			R.MT1			R.MT2			R.MT5			R.PSIS			R.Shank.Bottom.Lateral			R.Shank.Bottom.Medial			R.Shank.Top.Lateral			R.Shank.Top.Medial			R.Thigh.Bottom.Lateral			R.Thigh.Bottom.Medial			R.Thigh.Top.Lateral			R.Thigh.Top.Medial			R.TT			
		X1	Y1	Z1	X2	Y2	Z2	X3	Y3	Z3	X4	Y4	Z4	X5	Y5	Z5	X6	Y6	Z6	X7	Y7	Z7	X8	Y8	Z8	X9	Y9	Z9	X10	Y10	Z10	X11	Y11	Z11	X12	Y12	Z12	X13	Y13	Z13	X14	Y14	Z14	X15	Y15	Z15	X16	Y16	Z16	X17	Y17	Z17	X18	Y18	Z18	X19	Y19	Z19	X20	Y20	Z20	X21	Y21	Z21	X22	Y22	Z22	X23	Y23	Z23	X24	Y24	Z24	X25	Y25	Z25	X26	Y26	Z26	X27	Y27	Z27	X28	Y28	Z28	X29	Y29	Z29	X30	Y30	Z30	X31	Y31	Z31	X32	Y32	Z32	X33	Y33	Z33	X34	Y34	Z34	X35	Y35	Z35	X36	Y36	Z36	X37	Y37	Z37	X38	Y38	Z38	X39	Y39	Z39	X40	Y40	Z40	X41	Y41	Z41	X42	Y42	Z42	X43	Y43	Z43	X44	Y44	Z44	X45	Y45	Z45	X46	Y46	Z46	X47	Y47	Z47	X48	Y48	Z48	

57	0.3733333333333334	714.977294921875	108.1756057739258	1042.304809570313	740.4930419921875	118.7691802978516	1127.962768554688	859.126953125	1133.587646484375	1110.299560546875	778.7799682617188	1022.605590820313	1053.237426757813	643.4283447265625	41.57281875610352	1085.350952148438	665.92236328125	65.31819152832031	1045.097534179688	653.0181274414063	92.23554229736328	1087.22900390625	778.3742065429688	523.5839233398438	1039.481567382813	781.5848999023438	1191.862182617188	1069.927978515625	787.4646606445313	596.5546264648438	1050.24365234375	781.93603515625	576.4050903320313	1173.452758789063	876.83349609375	57.80904388427734	1132.571166992188	886.6372680664063	69.28715515136719	1088.6748046875	840.12841796875	51.1778450012207	1013.362854003906	677.5685424804688	1149.771362304688	1184.239379882813	725.9805297851563	207.8108062744141	1031.47705078125	682.9439086914063	210.6960296630859	1066.225219726563	722.4691772460938	287.7886657714844	1021.544982910156	681.2923583984375	291.2816772460938	1055.9873046875	782.6322021484375	753.6002807617188	1030.83984375	721.3358764648438	748.028564453125	1069.5009765625	767.4481201171875	863.37841796875	1028.760131835938	712.4547119140625	858.21923828125	1069.047485351563	832.1298828125	494.2185363769531	1097.222778320313	721.0855712890625	108.2904281616211	1417.577758789063	748.3667602539063	126.1924285888672	1332.4013671875	861.2966918945313	1142.5107421875	1356.755615234375	796.8485717773438	1032.352905273438	1411.943603515625	646.1958618164063	43.1652717590332	1374.20849609375	669.6665649414063	66.49007415771484	1412.267822265625	655.0463256835938	95.14586639404297	1371.730102539063	787.3643188476563	535.3938598632813	1420.55322265625	797.7775268554688	1208.546752929688	1382.108642578125	790.8243408203125	606.2658081054688	1411.695678710938	787.19775390625	582.2438354492188	1287.320190429688	879.4135131835938	58.64068222045898	1326.94482421875	890.2075805664063	72.47579193115234	1371.475952148438	846.9945068359375	51.705322265625	1448.449462890625	685.6243896484375	1158.547973632813	1278.389892578125	714.2168579101563	208.5100708007813	1422.723388671875	684.4192504882813	215.9436492919922	1381.740844726563	715.3062744140625	292.6738586425781	1434.961669921875	683.171630859375	296.0901794433594	1392.7646484375	809.8573608398438	736.252197265625	1428.712646484375	741.456298828125	732.9708862304688	1403.052368164063	799.2606811523438	845.0206298828125	1436.160034179688	734.64501953125	842.6563110351563	1409.724609375	837.9365234375	499.9924011230469	1358.380859375	
58	0.38	714.98583984375	108.1763305664063	1042.300048828125	740.492919921875	118.7728576660156	1127.96240234375	859.1060791015625	1133.599487304688	1110.302734375	778.7601928710938	1022.602722167969	1053.24072265625	643.4276123046875	41.57225036621094	1085.357788085938	665.9301147460938	65.31734466552734	1045.096435546875	653.0225830078125	92.2303466796875	1087.230590820313	778.3717651367188	523.586181640625	1039.494995117188	781.5670776367188	1191.859252929688	1069.939575195313	787.4586791992188	596.5661010742188	1050.233520507813	781.9432373046875	576.408447265625	1173.447143554688	876.8373413085938	57.79913330078125	1132.572875976563	886.6467895507813	69.27934265136719	1088.669921875	840.1294555664063	51.17431640625	1013.363220214844	677.5468139648438	1149.7626953125	1184.249267578125	725.9879150390625	207.8125457763672	1031.470336914063	682.9544677734375	210.6994018554688	1066.212158203125	722.4819946289063	287.7815551757813	1021.546691894531	681.3006591796875	291.287109375	1055.9765625	782.6103515625	753.6032104492188	1030.863159179688	721.3219604492188	748.0332641601563	1069.517333984375	767.6597900390625	863.208984375	1028.842041015625	712.4375610351563	858.2206420898438	1069.061401367188	832.1488037109375	494.2351684570313	1097.231689453125	721.0928955078125	108.2915649414063	1417.587646484375	748.3745727539063	126.2021331787109	1332.396728515625	861.2745971679688	1142.527587890625	1356.758422851563	796.849853515625	1032.363647460938	1411.941040039063	646.1989135742188	43.17258453369141	1374.204711914063	669.6710815429688	66.49098205566406	1412.271606445313	655.0498657226563	95.16207122802734	1371.723876953125	787.3815307617188	535.4037475585938	1420.56103515625	797.760498046875	1208.554077148438	1382.124389648438	790.8278198242188	606.265380859375	1411.703125	787.1973876953125	582.2537841796875	1287.321655273438	879.40576171875	58.64146041870117	1326.945556640625	890.206298828125	72.47418212890625	1371.485473632813	847.0009765625	51.70000076293945	1448.442504882813	685.6014404296875	1158.54541015625	1278.393310546875	714.268310546875	208.4494018554688	1422.670166015625	684.429443359375	215.9440460205078	1381.743774414063	715.3218994140625	292.6711730957031	1434.975708007813	683.194091796875	296.0915222167969	1392.761474609375	809.8546142578125	736.2487182617188	1428.710815429688	741.4605712890625	732.9745483398438	1403.055053710938	799.2637329101563	845.0264892578125	1436.176513671875	734.6455078125	842.6574096679688	1409.742919921875	837.951171875	499.9942932128906	1358.380859375	
59	0.3866666666666667	714.9839477539063	108.1689605712891	1042.299926757813	740.4884033203125	118.7815017700195	1127.962890625	859.0792846679688	1133.611938476563	1110.303466796875	778.7456665039063	1022.608825683594	1053.244262695313	643.4314575195313	41.58023452758789	1085.356079101563	665.92529296875	65.32003021240234	1045.097412109375	653.0165405273438	92.23773956298828	1087.235961914063	778.3595581054688	523.5984497070313	1039.487060546875	781.5523681640625	1191.869506835938	1069.944702148438	787.4473266601563	596.5729370117188	1050.235595703125	781.9466552734375	576.4109497070313	1173.448120117188	876.8357543945313	57.80401611328125	1132.569458007813	886.6430053710938	69.28714752197266	1088.681274414063	840.1239624023438	51.17601013183594	1013.364135742188	677.535400390625	1149.749267578125	1184.246459960938	726.0053100585938	207.8221130371094	1031.47314453125	682.955078125	210.7070465087891	1066.200073242188	722.4892578125	287.7899169921875	1021.542114257813	681.30419921875	291.2891540527344	1055.96826171875	782.5863037109375	753.6124877929688	1030.859741210938	721.3161010742188	748.04443359375	1069.5283203125	767.6539916992188	863.20556640625	1028.863891601563	712.4263305664063	858.219482421875	1069.091186523438	832.1388549804688	494.2477111816406	1097.251098632813	721.0923461914063	108.2962188720703	1417.5810546875	748.3782958984375	126.1976928710938	1332.398803710938	861.2523193359375	1142.541748046875	1356.766723632813	796.830810546875	1032.367309570313	1411.94921875	646.2069702148438	43.17875671386719	1374.197875976563	669.667236328125	66.50370025634766	1412.246337890625	655.0465087890625	95.15266418457031	1371.713134765625	787.370849609375	535.419921875	1420.57373046875	797.7356567382813	1208.566162109375	1382.1201171875	790.82373046875	606.2765502929688	1411.7177734375	787.1912841796875	582.2481079101563	1287.327270507813	879.4083862304688	58.64046478271484	1326.94580078125	890.205078125	72.47588348388672	1371.47900390625	846.9954223632813	51.70609664916992	1448.43798828125	685.5906372070313	1158.541748046875	1278.393676757813	714.2794189453125	208.4516906738281	1422.673461914063	684.4403076171875	215.9439544677734	1381.750854492188	715.327392578125	292.6756896972656	1434.970336914063	683.2034301757813	296.1054382324219	1392.789306640625	809.8580322265625	736.2612915039063	1428.727416992188	741.4624633789063	732.971435546875	1403.06005859375	799.2642211914063	845.0274658203125	1436.182983398438	734.6524658203125	842.6615600585938	1409.751342773438	837.9453735351563	500.0083312988281	1358.399780273438	
60	0.3933333333333334	714.9960327148438	108.1740112304688	1042.302856445313	740.4949340820313	118.7715911865234	1127.962890625	859.0541381835938	1133.625610351563	1110.30615234375	778.7080688476563	1022.603820800781	1053.248413085938	643.4312133789063	41.58158493041992	1085.343994140625	665.9343872070313	65.32038879394531	1045.105590820313	653.0233764648438	92.23967742919922	1087.228881835938	778.3538818359375	523.59716796875	1039.502563476563	781.5350952148438	1191.888305664063	1069.937866210938	787.4442138671875	596.5697631835938	1050.243896484375	781.9286499023438	576.4122314453125	1173.469970703125	876.839599609375	57.79643630981445	1132.570556640625	886.64794921875	69.27631378173828	1088.676879882813	840.1255493164063	51.17242050170898	1013.364135742188	677.5127563476563	1149.756103515625	1184.246704101563	726.0084838867188	207.8092498779297	1031.47802734375	682.9551391601563	210.7032623291016	1066.205078125	722.4993286132813	287.7832641601563	1021.537475585938	681.3021240234375	291.2953186035156	1055.960693359375	782.5679931640625	753.6209106445313	1030.865966796875	721.2999267578125	748.0499877929688	1069.536987304688	767.3978881835938	863.3868408203125	1028.796875	712.4146728515625	858.2180786132813	1069.10498046875	832.1172485351563	494.2466430664063	1097.255004882813	721.0929565429688	108.2984237670898	1417.586669921875	748.3843383789063	126.2092361450195	1332.404541015625	861.2361450195313	1142.56298828125	1356.778442382813	796.8255004882813	1032.377197265625	1411.952758789063	646.2029418945313	43.18193817138672	1374.19775390625	669.66943359375	66.50723266601563	1412.276733398438	655.0477294921875	95.16890716552734	1371.723876953125	787.3685302734375	535.4132690429688	1420.5771484375	797.710693359375	1208.57373046875	1382.117431640625	790.8121948242188	606.2764282226563	1411.7255859375	787.192626953125	582.2606811523438	1287.345825195313	879.41015625	58.63785171508789	1326.952514648438	890.2154541015625	72.47524261474609	1371.476928710938	846.99462890625	51.70354843139648	1448.439819335938	685.564697265625	1158.538452148438	1278.375366210938	714.2710571289063	208.4629974365234	1422.68408203125	684.4384765625	215.9517059326172	1381.7490234375	715.3287963867188	292.6846008300781	1434.970092773438	683.2046508789063	296.1028442382813	1392.7744140625	809.8529052734375	736.2630004882813	1428.737548828125	741.4642333984375	732.9796142578125	1403.0634765625	799.2659912109375	845.0430908203125	1436.201049804688	734.656005859375	842.6693115234375	1409.76025390625	837.9342651367188	500.0128479003906	1358.404174804688	
